<svg width="14" height="24" viewBox="0 0 14 24" fill="none" xmlns="http://www.w3.org/2000/svg">
<path d="M10.2386 12L0.330478 21.9081C0.103089 22.1355 0.103089 22.5041 0.330478 22.7315L1.42838 23.8294C1.53753 23.9387 1.68566 24 1.84007 24C1.99448 24 2.14261 23.9387 2.25176 23.8294L13.6695 12.4117C13.8969 12.1843 13.8969 11.8157 13.6695 11.5883L2.25184 0.170638C2.14269 0.0614061 1.99456 7.52584e-05 1.84015 7.52449e-05C1.68574 7.52314e-05 1.53761 0.061406 1.42846 0.170638L0.330558 1.26861C0.103169 1.496 0.103169 1.86469 0.330558 2.092L10.2386 12Z" fill="white"/>
</svg>
