<svg width="8" height="12" viewBox="0 0 8 12" fill="none" xmlns="http://www.w3.org/2000/svg">
<path d="M7.25681 5.14766C7.19654 5.08696 7.12982 5.03574 7.06051 4.99118L2.40941 0.340299C1.95547 -0.113209 1.21979 -0.113424 0.765633 0.340515C0.311694 0.794238 0.311694 1.53014 0.765633 1.98429L4.77144 5.98967L0.745401 10.0161C0.291247 10.4697 0.291247 11.2058 0.745401 11.6599C0.972478 11.8866 1.26972 12 1.56697 12C1.86421 12 2.1621 11.8866 2.38853 11.6595L7.06051 6.98817C7.12982 6.94361 7.19633 6.8926 7.25681 6.83169C7.48927 6.59923 7.60076 6.29402 7.59559 5.98967C7.60098 5.68511 7.48927 5.37947 7.25681 5.14766Z" fill="#999999"/>
</svg>
