<svg width="8" height="8" viewBox="0 0 8 8" fill="none" xmlns="http://www.w3.org/2000/svg">
<path d="M0.719944 1.1881C0.593352 1.06154 0.593352 0.850905 0.719944 0.71992C0.850961 0.59336 1.05723 0.59336 1.18824 0.71992L3.99834 3.53403L6.81316 0.71992C6.93975 0.59336 7.15044 0.59336 7.27674 0.71992C7.40775 0.850905 7.40775 1.06184 7.27674 1.1881L4.46664 3.99779L7.27674 6.8119C7.40775 6.93846 7.40775 7.1491 7.27674 7.28008C7.15015 7.40664 6.93945 7.40664 6.81316 7.28008L3.99834 4.46597L1.18824 7.28008C1.05723 7.40664 0.850961 7.40664 0.719944 7.28008C0.593352 7.1491 0.593352 6.93816 0.719944 6.8119L3.53004 3.99779L0.719944 1.1881Z" fill="white" stroke="white" stroke-width="0.5"/>
</svg>
