<svg width="28" height="25" viewBox="0 0 28 25" fill="none" xmlns="http://www.w3.org/2000/svg">
<path d="M1.74561 12.2038C2.74202 11.1985 4.05888 10.5863 5.45665 10.4569C4.25 9.37135 3.48868 7.80411 3.48868 6.05338C3.48868 2.77811 6.1428 0.123993 9.41871 0.123993C12.5475 0.123993 15.1092 2.54748 15.3315 5.61889C12.5481 6.82299 10.5948 9.59688 10.5948 12.8174C10.5948 13.9934 10.8624 15.1427 11.3599 16.1857C10.6432 16.5603 9.98254 17.0445 9.40661 17.6255C7.92984 19.1124 7.09079 21.1683 7.10672 23.2644L7.10799 23.307L7.10926 23.3434L7.16151 24.3353H0.0585928L-1.90735e-05 16.48C-0.0121231 14.8777 0.615411 13.3411 1.74561 12.2038Z" fill="#4356B4"/>
<path d="M14.4733 17.2222C13.2673 16.1372 12.5034 14.5693 12.5034 12.8186C12.5034 9.54269 15.1588 6.88794 18.4341 6.88794C21.71 6.88794 24.3648 9.54269 24.3648 12.8186C24.3648 14.5661 23.6041 16.1327 22.4 17.2183C25.4835 17.4573 27.9191 20.0107 27.9414 23.1547L28 24.3353H18.9833H9.07462L9.01601 23.2433C9.00454 21.6417 9.63271 20.105 10.7623 18.9678C11.76 17.9618 13.0762 17.3515 14.4733 17.2222Z" fill="#4356B4"/>
</svg>
