<svg width="21" height="18" viewBox="0 0 21 18" fill="none" xmlns="http://www.w3.org/2000/svg">
<path d="M19.4503 4.11455C18.9294 3.59376 18.3011 3.33329 17.5649 3.33329H15.2316L14.7004 1.91673C14.5684 1.57651 14.3272 1.28306 13.9764 1.03642C13.6256 0.78989 13.2663 0.666534 12.8982 0.666534H7.56478C7.19672 0.666534 6.83731 0.78989 6.48658 1.03642C6.13585 1.28306 5.89461 1.57651 5.76264 1.91673L5.23142 3.33329H2.8981C2.16187 3.33329 1.53352 3.59376 1.01263 4.11455C0.491839 4.63537 0.231445 5.26379 0.231445 5.99995V15.3333C0.231445 16.0695 0.491839 16.698 1.01263 17.2186C1.53352 17.7395 2.1619 18 2.8981 18H17.5647C18.3008 18 18.9291 17.7395 19.45 17.2186C19.9708 16.698 20.2312 16.0695 20.2312 15.3333V5.99995C20.2314 5.26379 19.9709 4.63537 19.4503 4.11455ZM13.5283 13.9636C12.6151 14.8768 11.5162 15.3335 10.2314 15.3335C8.94658 15.3335 7.8478 14.8768 6.93454 13.9636C6.02128 13.0505 5.56475 11.9514 5.56475 10.6669C5.56475 9.38196 6.02143 8.28321 6.93454 7.36996C7.84769 6.4567 8.94661 6.00016 10.2314 6.00016C11.5162 6.00016 12.6151 6.45681 13.5283 7.36996C14.4415 8.2831 14.8981 9.38196 14.8981 10.6669C14.8981 11.9514 14.4415 13.0504 13.5283 13.9636Z" fill="white"/>
<path d="M10.2315 7.66663C9.40511 7.66663 8.69851 7.96004 8.11168 8.54694C7.52486 9.13376 7.23145 9.84026 7.23145 10.6669C7.23145 11.4931 7.52486 12.1997 8.11168 12.7866C8.69851 13.3733 9.40508 13.6667 10.2315 13.6667C11.0578 13.6667 11.7645 13.3733 12.3514 12.7866C12.9382 12.1997 13.2316 11.4932 13.2316 10.6669C13.2316 9.8403 12.9382 9.1338 12.3514 8.54694C11.7646 7.96008 11.0578 7.66663 10.2315 7.66663Z" fill="white"/>
</svg>
