<svg width="124" height="124" viewBox="0 0 124 124" fill="none" xmlns="http://www.w3.org/2000/svg">
<path d="M119.594 97.7157L99.1846 77.3067C102.895 69.8853 105.369 61.2269 105.369 52.5686C105.369 23.5012 81.8678 0 52.8005 0C23.7332 0 0.231934 23.5012 0.231934 52.5686C0.231934 81.6359 23.7332 105.137 52.8005 105.137C61.4589 105.137 70.1172 102.663 77.5387 98.9526L97.9476 119.362C104.132 125.546 113.409 125.546 119.594 119.362C125.16 113.177 125.16 103.9 119.594 97.7157ZM52.8005 92.7681C30.5362 92.7681 12.601 74.8329 12.601 52.5686C12.601 30.3042 30.5362 12.3691 52.8005 12.3691C75.0648 12.3691 93 30.3042 93 52.5686C93 74.8329 75.0648 92.7681 52.8005 92.7681Z" fill="#E1E1E1"/>
<rect x="33.9387" y="38.8312" width="6.92172" height="48.4521" rx="2" transform="rotate(-45 33.9387 38.8312)" fill="#E1E1E1"/>
<rect x="68.1975" y="33.9381" width="6.92172" height="48.4521" rx="2" transform="rotate(45 68.1975 33.9381)" fill="#E1E1E1"/>
</svg>
