<svg width="24" height="22" viewBox="0 0 24 22" fill="none" xmlns="http://www.w3.org/2000/svg">
<path d="M22.5713 8.85951L3.20749 0.824656C2.39172 0.486125 1.47011 0.635047 0.80238 1.21311C0.134646 1.79127 -0.144635 2.68208 0.0736146 3.53788L1.79716 10.2969H10.2359C10.6242 10.2969 10.9391 10.6117 10.9391 11.0001C10.9391 11.3884 10.6242 11.7032 10.2359 11.7032H1.79716L0.0736146 18.4622C-0.144635 19.318 0.134599 20.2088 0.80238 20.787C1.47147 21.3662 2.39318 21.5133 3.20754 21.1754L22.5713 13.1406C23.4529 12.7748 24.0006 11.9546 24.0006 11.0001C24.0006 10.0455 23.4529 9.22527 22.5713 8.85951Z" fill="#4356B4"/>
</svg>
